<?xml version="1.0" standalone="no"?>
<!DOCTYPE svg PUBLIC "-//W3C//DTD SVG 20010904//EN"
 "http://www.w3.org/TR/2001/REC-SVG-20010904/DTD/svg10.dtd">
<svg version="1.0" xmlns="http://www.w3.org/2000/svg"
 width="256.000000pt" height="256.000000pt" viewBox="0 0 256.000000 256.000000"
 preserveAspectRatio="xMidYMid meet">

<g transform="translate(0.000000,256.000000) scale(0.100000,-0.100000)"
fill="#fb9400" stroke="none">
<path d="M1300 2384 c-169 -36 -298 -148 -335 -289 -17 -69 -21 -283 -5 -365
22 -114 108 -240 202 -292 35 -20 38 -25 38 -63 l0 -42 -107 -18 c-144 -23
-218 -47 -289 -93 -98 -64 -176 -166 -218 -285 -4 -13 -14 -17 -33 -15 -23 2
-29 8 -31 35 -6 58 -67 55 -78 -3 l-6 -34 -60 0 c-70 0 -111 -19 -138 -63 -18
-28 -20 -51 -20 -199 0 -152 2 -168 18 -177 14 -7 25 -6 40 5 19 13 22 25 22
95 l0 79 430 0 430 0 0 -184 c0 -170 -1 -185 -21 -210 l-20 -26 -388 0 c-441
0 -431 -2 -431 74 0 53 -18 79 -51 74 -23 -3 -24 -6 -24 -75 0 -62 3 -75 25
-98 52 -56 47 -55 477 -55 454 0 449 -1 491 80 19 38 22 60 22 152 l0 108 548
2 547 3 3 25 c4 37 -102 382 -122 395 -20 13 -50 -4 -53 -31 -2 -10 17 -84 41
-164 l43 -145 -105 -3 c-57 -1 -106 -1 -109 1 -2 3 -9 47 -15 98 -12 105 -23
125 -63 115 l-27 -7 6 -82 c4 -45 10 -92 13 -104 l5 -23 -356 0 -356 0 0 110
c0 125 -11 162 -59 203 -28 24 -41 27 -101 27 l-69 0 -3 31 c-6 64 -70 64 -76
0 l-3 -31 -130 0 -130 0 6 23 c26 86 125 194 219 238 55 26 247 69 307 69 11
0 42 -55 100 -180 46 -100 89 -186 96 -191 31 -26 51 2 133 186 60 135 87 185
100 185 9 0 66 -9 125 -20 150 -27 215 -60 304 -156 55 -60 73 -75 89 -70 49
16 31 66 -52 150 -93 93 -196 137 -388 167 l-78 12 0 42 c0 40 3 45 43 68 103
61 178 183 198 322 16 115 6 296 -21 368 -46 122 -172 220 -325 252 -85 18
-140 18 -225 -1z m270 -94 c120 -46 198 -131 220 -237 17 -82 17 -83 -103 -83
-105 0 -187 16 -233 47 -15 10 -34 12 -53 8 -50 -11 -136 13 -198 54 -31 21
-64 36 -73 34 -10 -3 -27 -26 -39 -51 -12 -26 -31 -58 -41 -72 l-20 -25 0 36
c-1 133 111 259 270 304 74 20 197 14 270 -15z m-375 -302 c42 -24 133 -48
187 -48 21 0 72 -12 114 -26 65 -21 95 -26 192 -26 l114 0 -6 -76 c-9 -101
-28 -156 -74 -217 -39 -52 -121 -108 -182 -125 -65 -18 -223 -12 -284 11 -117
43 -207 164 -221 294 l-7 64 42 48 c23 26 52 65 64 85 11 21 22 38 23 38 1 0
18 -10 38 -22z m219 -609 c56 0 109 3 119 7 14 5 17 0 17 -36 0 -31 -18 -84
-66 -191 l-67 -149 -68 146 c-53 113 -69 157 -69 191 0 38 3 44 17 39 9 -4 62
-7 117 -7z m-967 -558 c10 -38 66 -38 76 -1 5 19 15 20 204 20 196 0 198 0
208 -22 7 -15 19 -23 35 -23 16 0 28 8 35 23 8 19 17 22 67 22 47 0 59 -4 72
-22 9 -12 16 -35 16 -50 l0 -28 -430 0 -430 0 0 34 c0 50 21 66 87 66 46 0 56
-3 60 -19z"/>
<path d="M1732 1018 c-7 -7 -12 -31 -12 -54 l0 -43 -46 -3 c-61 -4 -81 -30
-45 -59 13 -10 38 -19 57 -19 31 0 33 -2 36 -41 2 -27 9 -46 21 -53 28 -18 52
4 55 53 3 39 5 41 36 41 19 0 44 9 57 19 36 29 16 55 -45 59 l-46 3 0 43 c0
44 -13 66 -40 66 -9 0 -21 -5 -28 -12z"/>
</g>
</svg>
