<?xml version="1.0" standalone="no"?>
<!DOCTYPE svg PUBLIC "-//W3C//DTD SVG 20010904//EN"
 "http://www.w3.org/TR/2001/REC-SVG-20010904/DTD/svg10.dtd">
<svg version="1.0" xmlns="http://www.w3.org/2000/svg"
 width="128.000000pt" height="128.000000pt" viewBox="0 0 128.000000 128.000000"
 preserveAspectRatio="xMidYMid meet">

<g transform="translate(0.000000,128.000000) scale(0.100000,-0.100000)"
fill="#DB2611" stroke="none">
<path d="M625 1097 c-3 -7 -5 -47 -3 -88 2 -58 6 -74 18 -74 12 0 15 16 15 84
0 59 -4 86 -12 88 -7 3 -15 -2 -18 -10z"/>
<path d="M307 1003 c-12 -11 -8 -19 38 -82 41 -55 75 -78 75 -50 0 13 -91 139
-100 139 -4 0 -10 -3 -13 -7z"/>
<path d="M907 945 c-50 -69 -56 -85 -32 -85 17 0 107 118 102 133 -8 25 -26
13 -70 -48z"/>
<path d="M586 869 c-98 -15 -190 -99 -221 -201 -10 -36 -15 -96 -15 -194 l0
-142 -31 -31 c-26 -27 -30 -36 -27 -78 l3 -48 345 0 345 0 3 48 c3 41 -1 51
-27 77 l-29 30 -4 162 c-3 140 -6 170 -24 209 -58 125 -179 189 -318 168z m31
-65 c8 -21 -13 -42 -28 -27 -13 13 -5 43 11 43 6 0 13 -7 17 -16z m-47 -33 c0
-9 -13 -24 -29 -34 -16 -9 -39 -33 -51 -52 -23 -38 -60 -48 -60 -17 0 40 97
136 126 125 8 -3 14 -13 14 -22z m362 -498 c10 -9 18 -27 18 -40 l0 -23 -310
0 -310 0 0 24 c0 55 8 56 307 56 243 0 279 -2 295 -17z"/>
<path d="M100 716 c0 -15 146 -70 161 -60 23 14 3 32 -59 52 -80 26 -102 27
-102 8z"/>
<path d="M1073 707 c-58 -19 -77 -37 -54 -51 15 -10 161 45 161 60 0 19 -32
16 -107 -9z"/>
<path d="M173 413 c-70 -24 -88 -38 -60 -48 23 -9 151 39 155 58 4 22 -7 21
-95 -10z"/>
<path d="M1012 423 c4 -19 132 -67 156 -58 27 10 8 25 -66 49 -92 31 -94 31
-90 9z"/>
</g>
</svg>
