<?xml version="1.0" standalone="no"?>
<!DOCTYPE svg PUBLIC "-//W3C//DTD SVG 20010904//EN"
 "http://www.w3.org/TR/2001/REC-SVG-20010904/DTD/svg10.dtd">
<svg version="1.0" xmlns="http://www.w3.org/2000/svg"
 width="512.000000pt" height="512.000000pt" viewBox="0 0 512.000000 512.000000"
 preserveAspectRatio="xMidYMid meet">

<g transform="translate(0.000000,512.000000) scale(0.100000,-0.100000)"
fill="#47d340" stroke="none">
<path d="M1973 5068 c-37 -28 -95 -73 -128 -100 l-60 -48 -725 0 c-766 -1
-771 -1 -822 -47 -11 -10 -29 -36 -39 -58 -18 -38 -19 -130 -19 -2355 0 -2240
1 -2316 19 -2356 10 -23 36 -54 57 -70 l37 -29 1846 -3 c1670 -2 1850 -1 1888
13 50 19 88 61 103 113 6 24 10 377 10 1027 l0 990 376 375 c394 393 424 429
423 510 0 65 -25 107 -125 214 -111 119 -169 156 -243 156 -76 -1 -117 -28
-276 -189 l-150 -151 -5 862 c-5 823 -6 865 -24 901 -11 22 -37 51 -59 65
l-41 27 -740 3 -741 2 -128 100 -129 100 -118 0 -119 0 -68 -52z m402 -158
l128 -100 284 0 283 0 0 -65 0 -65 -910 0 -910 0 0 65 0 65 278 0 c318 0 275
-12 437 118 l100 80 91 1 92 1 127 -100z m-1235 -200 c0 -158 -129 -140 1019
-140 877 0 981 2 995 16 13 12 16 38 16 120 l0 104 410 0 c397 0 411 -1 430
-20 20 -20 20 -33 20 -933 l0 -913 -51 -49 c-28 -28 -352 -354 -720 -727
l-670 -676 -79 -275 c-44 -151 -77 -282 -74 -291 16 -41 36 -39 302 29 141 36
266 68 277 71 11 3 244 231 517 507 l497 502 1 -940 c0 -836 -2 -943 -16 -963
l-15 -22 -1836 0 c-1695 0 -1838 1 -1855 17 -17 15 -18 101 -18 2334 l0 2318
22 15 c19 14 77 16 425 16 l403 0 0 -100z m3501 -1441 c16 -11 65 -60 109
-110 73 -81 80 -92 80 -131 0 -39 -5 -46 -112 -154 l-113 -113 -154 151 -154
150 115 114 c110 109 116 114 157 114 27 0 54 -8 72 -21z m-260 -435 l148
-147 -757 -763 c-416 -420 -760 -764 -763 -764 -12 0 -290 302 -287 311 6 17
1489 1509 1500 1509 6 0 77 -66 159 -146z m-1481 -1724 c0 -3 -71 -23 -157
-44 -87 -22 -163 -41 -170 -43 -6 -3 10 69 38 164 27 92 49 170 49 173 1 7
240 -242 240 -250z"/>
<path d="M1096 4344 c-13 -13 -16 -42 -16 -160 l0 -144 -144 0 c-118 0 -147
-3 -160 -16 -23 -23 -23 -295 0 -318 13 -13 42 -16 160 -16 l144 0 0 -144 c0
-118 3 -147 16 -160 13 -13 42 -16 163 -16 101 0 151 4 159 12 8 8 12 58 12
160 l0 148 148 0 c102 0 152 4 160 12 17 17 17 309 0 326 -8 8 -58 12 -160 12
l-148 0 0 148 c0 102 -4 152 -12 160 -8 8 -58 12 -159 12 -121 0 -150 -3 -163
-16z m232 -235 c2 -105 6 -150 15 -158 8 -6 74 -12 158 -13 l144 -3 0 -70 0
-70 -144 -3 c-84 -1 -150 -7 -158 -13 -9 -8 -13 -53 -15 -158 l-3 -146 -67 -3
-68 -3 0 139 c0 189 8 181 -180 184 l-145 3 0 70 0 70 145 3 c188 3 180 -5
180 184 l0 139 68 -3 67 -3 3 -146z"/>
<path d="M2123 4230 c-31 -13 -40 -55 -18 -80 18 -20 36 -20 765 -20 729 0
747 0 765 20 23 26 13 68 -21 80 -32 13 -1460 12 -1491 0z"/>
<path d="M2100 3601 c-15 -28 -12 -46 8 -64 17 -16 84 -17 764 -17 736 0 745
0 763 20 15 16 17 26 9 48 l-9 27 -762 3 c-746 2 -762 2 -773 -17z"/>
<path d="M682 2998 c-15 -15 -15 -61 0 -76 9 -9 350 -12 1474 -12 1316 0 1464
2 1478 16 20 20 20 48 0 68 -14 14 -162 16 -1478 16 -1124 0 -1465 -3 -1474
-12z"/>
<path d="M686 2384 c-20 -19 -21 -58 -2 -73 10 -8 353 -10 1282 -9 l1269 3 9
27 c8 22 6 32 -9 48 -18 20 -25 20 -1276 20 -1130 0 -1259 -2 -1273 -16z"/>
<path d="M686 1774 c-23 -22 -20 -60 6 -78 20 -14 128 -16 960 -16 562 0 947
4 961 9 33 13 43 46 23 76 l-16 25 -960 0 c-858 0 -960 -2 -974 -16z"/>
<path d="M687 1162 c-23 -26 -21 -58 5 -76 20 -14 103 -16 705 -16 670 0 683
0 703 20 11 11 20 27 20 35 0 8 -9 24 -20 35 -20 20 -33 20 -708 20 -655 0
-690 -1 -705 -18z"/>
<path d="M692 554 c-27 -18 -29 -55 -4 -77 17 -16 133 -17 1468 -17 1296 0
1452 2 1472 16 27 19 28 48 2 74 -20 20 -33 20 -1468 20 -1294 0 -1450 -2
-1470 -16z"/>
</g>
</svg>
