<?xml version="1.0" standalone="no"?>
<!DOCTYPE svg PUBLIC "-//W3C//DTD SVG 20010904//EN"
 "http://www.w3.org/TR/2001/REC-SVG-20010904/DTD/svg10.dtd">
<svg version="1.0" xmlns="http://www.w3.org/2000/svg"
 width="512.000000pt" height="512.000000pt" viewBox="0 0 512.000000 512.000000"
 preserveAspectRatio="xMidYMid meet">

<g transform="translate(0.000000,512.000000) scale(0.100000,-0.100000)"
fill="#67FF03" stroke="none">
<path d="M2879 4441 l-29 -29 0 -727 c0 -501 3 -733 11 -747 21 -40 67 -48
263 -48 l184 0 -44 -172 c-24 -95 -44 -185 -44 -200 0 -35 27 -61 59 -56 14 2
169 99 343 216 l318 212 545 0 c596 0 600 0 623 56 9 22 12 210 10 752 l-3
724 -28 24 -28 24 -1075 0 -1076 0 -29 -29z m2119 -758 l-3 -668 -548 -3 -548
-2 -259 -175 c-142 -96 -260 -175 -263 -175 -3 0 12 67 33 149 53 212 71 195
-213 199 l-227 2 0 670 0 670 1015 0 1015 0 -2 -667z"/>
<path d="M3660 4201 c-76 -23 -146 -87 -182 -166 -17 -38 -23 -68 -22 -125 0
-121 50 -239 160 -386 74 -98 320 -361 345 -369 11 -4 30 -4 43 -1 21 5 199
188 307 316 181 215 246 428 176 572 -54 110 -150 168 -276 168 -79 0 -139
-25 -193 -77 l-37 -36 -26 31 c-44 52 -118 82 -199 81 -39 0 -82 -4 -96 -8z
m178 -131 c18 -11 50 -47 70 -80 58 -94 97 -94 154 0 46 75 85 100 156 100 61
0 99 -17 136 -60 105 -125 20 -325 -261 -620 l-109 -114 -86 90 c-120 125
-173 188 -229 272 -126 190 -127 337 -4 413 42 26 129 25 173 -1z"/>
<path d="M1415 4375 c-240 -45 -424 -136 -584 -289 -132 -128 -217 -273 -269
-464 -26 -96 -26 -101 -28 -452 -1 -390 -8 -453 -65 -625 -71 -214 -232 -393
-396 -441 -90 -26 -95 -74 -16 -144 63 -56 144 -110 220 -149 l62 -31 -67 -67
c-126 -126 -208 -278 -243 -448 -25 -118 -28 -559 -5 -591 14 -19 43 -19 1534
-22 1487 -2 1520 -2 1543 17 l24 19 -1 249 c0 192 -4 266 -17 326 -36 168
-116 317 -239 443 l-69 72 75 40 c81 44 158 98 219 155 32 30 38 42 35 69 -3
35 -6 37 -111 82 -157 68 -288 229 -355 436 -53 163 -56 193 -57 565 -1 370
-5 411 -52 560 -93 294 -314 519 -623 634 -163 61 -369 83 -515 56z m376 -139
c319 -81 551 -291 649 -586 41 -126 50 -233 43 -510 -9 -369 18 -540 116 -745
78 -162 170 -268 306 -349 l55 -33 -53 -36 c-68 -44 -129 -75 -192 -97 -49
-17 -51 -17 -97 6 -104 53 -212 75 -393 83 -154 7 -175 10 -227 34 -58 27 -58
27 -58 71 0 31 5 46 16 50 8 3 40 22 71 43 125 83 225 198 283 327 57 124 62
163 67 509 6 360 6 357 -69 378 -59 15 -171 73 -245 125 -90 64 -158 146 -206
246 -24 51 -50 90 -60 94 -38 12 -65 -5 -97 -63 -18 -32 -67 -92 -109 -134
-166 -166 -405 -284 -706 -348 -63 -14 -105 -28 -113 -39 -10 -13 -12 -79 -10
-312 4 -274 6 -300 27 -365 59 -182 192 -349 349 -436 42 -24 43 -25 40 -73
l-3 -49 -80 -27 c-65 -22 -105 -28 -220 -33 -149 -6 -213 -20 -342 -74 l-71
-30 -72 28 c-63 26 -210 111 -210 123 0 2 24 18 54 34 154 87 293 276 359 487
53 170 61 250 62 635 l1 355 27 88 c77 249 224 427 447 541 224 114 434 141
661 82z m117 -758 c67 -63 182 -137 277 -178 l77 -35 -5 -285 c-5 -316 -11
-352 -73 -471 -120 -228 -388 -373 -659 -356 -245 16 -474 158 -575 357 -60
118 -63 137 -68 410 l-4 255 84 19 c295 65 577 217 740 395 l62 69 46 -67 c26
-36 70 -87 98 -113z m-534 -1425 c81 -22 295 -23 384 -1 l62 15 0 -27 c0 -24
-19 -41 -136 -126 -75 -55 -139 -98 -143 -96 -3 1 -59 46 -123 99 -101 82
-118 100 -118 124 0 34 -4 33 74 12z m-53 -214 c52 -45 102 -89 112 -98 16
-16 14 -20 -42 -75 l-58 -58 -103 130 c-57 71 -103 133 -103 138 1 7 70 39 94
43 3 1 48 -35 100 -80z m640 36 c-5 -5 -53 -67 -108 -137 l-100 -126 -57 57
-57 58 127 95 127 95 38 -16 c22 -9 34 -20 30 -26z m-841 -197 c74 -93 145
-181 157 -194 40 -44 66 -33 169 68 l94 92 94 -92 c135 -133 119 -138 311 103
l155 195 110 0 110 0 0 -264 0 -264 -28 -10 c-81 -28 -144 -125 -144 -220 0
-255 336 -334 455 -107 29 56 28 155 -1 211 -26 50 -93 111 -133 119 l-29 7 0
250 0 250 28 -6 c15 -3 70 -28 122 -54 77 -38 111 -63 181 -132 185 -183 245
-364 237 -720 l-3 -135 -1438 -3 -1439 -2 5 227 c3 174 8 242 21 288 43 149
143 301 260 394 59 47 189 119 244 136 l22 6 0 -155 0 -155 -52 -28 c-59 -32
-105 -89 -118 -149 -5 -21 -10 -101 -10 -177 0 -133 1 -139 25 -162 20 -21 34
-25 87 -25 76 0 108 18 108 59 0 34 -25 58 -65 63 l-30 3 -3 90 c-4 105 8 156
45 184 47 38 156 21 183 -28 5 -11 10 -72 10 -135 l0 -116 -29 0 c-37 0 -61
-23 -61 -60 0 -42 32 -60 106 -60 44 0 68 5 84 18 21 17 21 23 18 199 l-3 181
-31 44 c-20 27 -52 54 -88 72 l-56 29 0 162 c0 89 3 165 7 168 3 4 45 7 92 7
l86 -1 135 -171z m1346 -499 c37 -35 49 -87 31 -132 -29 -69 -111 -96 -174
-57 -40 24 -54 50 -55 102 0 44 24 85 63 106 35 19 105 9 135 -19z"/>
<path d="M1140 3029 c-77 -35 -110 -66 -110 -103 0 -62 54 -77 113 -32 62 47
151 47 207 -1 36 -30 73 -33 100 -8 31 28 25 59 -21 99 -78 66 -200 85 -289
45z"/>
<path d="M1810 3041 c-70 -22 -140 -78 -140 -114 0 -53 59 -79 98 -44 66 57
144 62 221 13 45 -29 57 -33 79 -25 113 43 -27 181 -181 178 -28 0 -63 -4 -77
-8z"/>
<path d="M1296 2585 c-28 -28 -17 -75 23 -102 56 -38 157 -64 247 -64 174 -1
323 78 285 150 -19 35 -56 37 -119 5 -48 -24 -72 -30 -148 -32 -81 -3 -99 -1
-155 23 -87 37 -112 40 -133 20z"/>
</g>
</svg>
