<?xml version="1.0" encoding="iso-8859-1"?>
<!-- Uploaded to: SVG Repo, www.svgrepo.com, Generator: SVG Repo Mixer Tools -->
<svg height="800px" width="800px" version="1.1" id="Layer_1" xmlns="http://www.w3.org/2000/svg" xmlns:xlink="http://www.w3.org/1999/xlink" 
	 viewBox="0 0 511.187 511.187" xml:space="preserve">
<g transform="translate(1 1)">
	<path style="fill:#FFE100;" d="M280.6,288.727H33.133V91.607c0-13.653,11.093-24.747,24.747-24.747h197.973
		c13.653,0,24.747,11.093,24.747,24.747V288.727z"/>
	<path style="fill:#FECC00;" d="M33.133,288.727v81.067c0,11.947,9.387,21.333,21.333,21.333H50.2c0-28.16,23.04-51.2,51.2-51.2
		s51.2,23.04,51.2,51.2h128v-102.4H33.133z"/>
	<path style="fill:#FFFFFF;" d="M33.133,369.794v-81.067l0,0V91.607c0-13.653,11.093-24.747,24.747-24.747h-25.6
		c-13.653,0-24.747,11.093-24.747,24.747v197.12l0,0v81.067c0,11.947,9.387,21.333,21.333,21.333H50.2l0,0
		C40.813,388.567,33.133,380.034,33.133,369.794"/>
	<path style="fill:#FFE100;" d="M440.173,225.58L383,154.754c-5.12-6.827-13.653-11.093-23.04-11.093h-70.827v247.467H357.4
		c0-28.16,23.04-51.2,51.2-51.2c28.16,0,42.667,23.04,42.667,51.2h6.827c10.24,0,18.773-8.533,18.773-19.627V248.62
		c0-10.24-8.533-18.773-18.773-18.773L440.173,225.58z"/>
	<path style="fill:#FFA800;" d="M483.693,228.994h-25.6c10.24,0,18.773,8.533,18.773,18.773V371.5c0,10.24-7.68,17.92-17.067,18.773
		l0,0h23.893c10.24,0,18.773-8.533,18.773-18.773V247.767C502.467,237.527,493.933,228.994,483.693,228.994"/>
	<path style="fill:#63D3FD;" d="M383,154.754c-5.12-6.827-13.653-11.093-23.04-11.093h-19.627v45.227
		c0,7.68,5.973,14.507,14.507,14.507h67.413L383,154.754z"/>
	<path style="fill:#E4667F;" d="M189.293,160.727h-23.04c-3.413,0-5.973-2.56-5.973-5.973v-22.187
		c0.853-3.413-1.707-5.973-5.12-5.973h-23.04c-2.56,0-5.12,2.56-5.12,5.973v23.04c0,3.413-2.56,5.973-5.973,5.973h-23.04
		c-3.413,0-5.973,2.56-5.973,5.973v23.04c0,3.413,2.56,5.973,5.973,5.973h23.04c3.413,0,5.973,2.56,5.973,5.973v23.04
		c0,3.413,2.56,5.973,5.973,5.973h23.04c3.413,0,5.973-2.56,5.973-5.973v-23.04c0-3.413,2.56-5.973,5.973-5.973H191
		c3.413,0,5.973-2.56,5.973-5.973v-23.04C195.267,163.287,192.707,160.727,189.293,160.727"/>
	<path style="fill:#FECC00;" d="M434.2,391.127c0,28.16-17.067,51.2-38.4,51.2s-38.4-23.04-38.4-51.2c0-28.16,17.067-51.2,38.4-51.2
		S434.2,362.967,434.2,391.127"/>
	<path style="fill:#FFA800;" d="M407.747,339.927c-2.56,0-5.12,0-7.68,0.853c18.773,3.413,33.28,24.747,33.28,50.347
		c0,25.6-14.507,46.933-33.28,50.347c2.56,0,5.12,0.853,7.68,0.853c28.16,0,51.2-23.04,51.2-51.2
		C458.947,362.967,435.907,339.927,407.747,339.927"/>
	<path style="fill:#FECC00;" d="M127.853,391.127c0,28.16-17.067,51.2-38.4,51.2s-38.4-23.04-38.4-51.2
		c0-28.16,17.067-51.2,38.4-51.2S127.853,362.967,127.853,391.127"/>
	<path style="fill:#FFA800;" d="M101.4,339.927c-2.56,0-5.12,0-7.68,0.853c18.773,3.413,33.28,24.747,33.28,50.347
		c0,25.6-14.507,46.933-33.28,50.347c2.56,0,5.12,0.853,7.68,0.853c28.16,0,51.2-23.04,51.2-51.2
		C152.6,362.967,129.56,339.927,101.4,339.927"/>
	<path d="M297.667,297.26H-1V91.607c0-18.773,14.507-33.28,33.28-33.28h232.96c17.92,0,32.427,14.507,32.427,33.28V297.26z
		 M16.067,280.194H280.6V91.607c0-8.533-6.827-16.213-16.213-16.213H32.28c-9.387,0-16.213,6.827-16.213,16.213V280.194z"/>
	<path d="M408.6,450.86c-33.28,0-59.733-26.453-59.733-59.733s26.453-59.733,59.733-59.733s59.733,26.453,59.733,59.733
		S441.88,450.86,408.6,450.86z M408.6,348.46c-23.893,0-42.667,18.773-42.667,42.667c0,23.893,18.773,42.667,42.667,42.667
		c23.893,0,42.667-18.773,42.667-42.667C451.267,367.234,432.493,348.46,408.6,348.46z"/>
	<path d="M101.4,450.86c-33.28,0-59.733-26.453-59.733-59.733s26.453-59.733,59.733-59.733s59.733,26.453,59.733,59.733
		S134.68,450.86,101.4,450.86z M101.4,348.46c-23.893,0-42.667,18.773-42.667,42.667c0,23.893,18.773,42.667,42.667,42.667
		s42.667-18.773,42.667-42.667C144.067,367.234,125.293,348.46,101.4,348.46z"/>
	<path d="M498.2,297.26H353.133c-5.12,0-8.533-3.413-8.533-8.533c0-5.12,3.413-8.533,8.533-8.533H498.2
		c5.12,0,8.533,3.413,8.533,8.533C506.733,293.847,503.32,297.26,498.2,297.26z"/>
	<path d="M482.84,399.66h-31.573v-8.533c0-23.893-18.773-42.667-42.667-42.667c-23.893,0-42.667,18.773-42.667,42.667v8.533H280.6
		V135.127h79.36c11.947,0,22.187,5.12,29.867,14.507l56.32,70.827l0.853,0.853h35.84c15.36,0,27.307,12.8,27.307,27.307v123.733
		C511,386.86,498.2,399.66,482.84,399.66z M467.48,382.594h15.36c5.973,0,10.24-5.12,10.24-11.093V248.62
		c0-5.973-5.12-10.24-10.24-10.24H447c-5.973,0-11.093-2.56-14.507-6.827l-56.32-70.827c-4.267-5.12-10.24-7.68-16.213-7.68h-62.293
		v230.4h52.053c4.267-29.013,29.013-51.2,58.88-51.2C438.467,332.247,463.213,353.58,467.48,382.594z"/>
	<path d="M297.667,399.66h-153.6v-8.533c0-23.893-18.773-42.667-42.667-42.667s-42.667,18.773-42.667,42.667v8.533H24.6
		c-14.507,0-25.6-11.093-25.6-25.6v-93.867h298.667V399.66z M160.28,382.594H280.6V297.26H16.067v76.8
		c0,5.12,3.413,8.533,8.533,8.533h17.92c4.267-29.013,29.013-51.2,58.88-51.2S156.013,353.58,160.28,382.594z"/>
	<path d="M118.467,391.127c0,9.387-7.68,17.067-17.067,17.067s-17.067-7.68-17.067-17.067s7.68-17.067,17.067-17.067
		S118.467,381.74,118.467,391.127"/>
	<path d="M425.667,391.127c0,9.387-7.68,17.067-17.067,17.067c-9.387,0-17.067-7.68-17.067-17.067s7.68-17.067,17.067-17.067
		C417.987,374.06,425.667,381.74,425.667,391.127"/>
	<path d="M440.173,211.927H354.84c-12.8,0-23.04-10.24-23.04-23.04v-53.76h28.16c11.947,0,22.187,5.12,29.867,14.507
		L440.173,211.927z M348.867,152.194v36.693c0,3.413,2.56,5.973,5.973,5.973h50.347l-28.16-34.987
		c-4.267-5.12-10.24-7.68-16.213-7.68H348.867z"/>
	<path d="M155.16,237.527h-23.04c-7.68,0-14.507-5.973-14.507-14.507v-19.627H97.987c-7.68,0-13.653-5.973-13.653-14.507v-23.04
		c0-7.68,5.973-14.507,14.507-14.507h19.627v-18.773c0-8.533,5.973-14.507,14.507-14.507h23.04c7.68,0,13.653,5.973,13.653,14.507
		v19.627h19.627c7.68,0,14.507,5.973,14.507,14.507v23.04c0,7.68-5.973,14.507-14.507,14.507h-19.627v19.627
		C169.667,231.553,163.693,237.527,155.16,237.527z M135.533,220.46H152.6v-19.627c0-7.68,5.973-14.507,14.507-14.507h19.627V169.26
		h-19.627c-7.68,0-14.507-5.973-14.507-14.507v-19.627h-17.067v19.627c0,7.68-5.973,14.507-14.507,14.507H101.4v17.067h19.627
		c7.68,0,14.507,5.973,14.507,14.507V220.46z M189.293,169.26L189.293,169.26L189.293,169.26z"/>
</g>
</svg>