<?xml version="1.0" standalone="no"?>
<!DOCTYPE svg PUBLIC "-//W3C//DTD SVG 20010904//EN"
 "http://www.w3.org/TR/2001/REC-SVG-20010904/DTD/svg10.dtd">
<svg version="1.0" xmlns="http://www.w3.org/2000/svg"
 width="64.000000pt" height="64.000000pt" viewBox="0 0 64.000000 64.000000"
 preserveAspectRatio="xMidYMid meet">

<g transform="translate(0.000000,64.000000) scale(0.100000,-0.100000)"
fill="#47D340" stroke="none">
<path d="M185 620 c-10 -11 -28 -20 -41 -20 -33 0 -54 -10 -54 -26 0 -9 -11
-14 -28 -14 -60 0 -62 -11 -62 -283 0 -212 2 -248 16 -262 13 -13 38 -15 150
-13 176 4 177 21 2 28 l-133 5 0 245 0 245 26 3 c20 2 28 -2 32 -17 5 -20 12
-21 136 -21 126 0 131 1 131 21 0 16 5 20 28 17 26 -3 27 -6 30 -60 2 -43 7
-58 17 -58 12 0 15 14 15 59 0 68 -15 91 -60 91 -19 0 -29 6 -33 20 -4 15 -14
20 -39 20 -21 0 -40 7 -51 20 -9 11 -27 20 -40 20 -13 0 -32 -9 -42 -20z m67
-35 c9 -19 19 -25 45 -25 26 0 33 -4 33 -20 0 -19 -7 -20 -105 -20 -98 0 -105
1 -105 20 0 16 7 20 35 20 25 0 38 5 42 18 14 38 39 41 55 7z"/>
<path d="M138 413 c-23 -23 -29 -24 -43 -13 -29 24 -38 -4 -10 -30 l25 -24 35
34 c32 31 45 60 27 60 -4 0 -19 -12 -34 -27z"/>
<path d="M220 425 c0 -12 16 -15 80 -15 64 0 80 3 80 15 0 12 -16 15 -80 15
-64 0 -80 -3 -80 -15z"/>
<path d="M220 355 c0 -13 9 -16 43 -13 23 2 42 8 42 13 0 6 -19 11 -42 13 -34
3 -43 0 -43 -13z"/>
<path d="M375 354 c-71 -37 -105 -91 -105 -169 0 -61 31 -119 82 -152 57 -38
147 -40 200 -4 59 41 83 85 83 156 0 50 -5 69 -28 103 -15 23 -45 51 -67 62
-47 24 -123 26 -165 4z m138 -28 c45 -18 84 -67 92 -116 16 -95 -80 -191 -175
-175 -104 18 -160 133 -109 225 39 69 120 97 192 66z"/>
<path d="M407 283 c-4 -3 -7 -14 -7 -24 0 -11 -9 -19 -22 -21 -20 -3 -23 -10
-26 -50 -3 -45 -2 -48 22 -48 19 0 25 -6 28 -27 3 -26 7 -28 50 -31 44 -3 47
-2 50 25 2 22 9 29 31 31 27 3 28 6 25 50 -3 43 -5 47 -30 50 -22 3 -28 9 -28
28 0 22 -4 24 -43 24 -24 0 -47 -3 -50 -7z m63 -48 c0 -20 6 -27 30 -31 38 -8
39 -32 3 -36 -22 -2 -29 -9 -31 -30 -4 -37 -28 -36 -35 2 -5 24 -12 30 -32 30
-16 0 -25 6 -25 15 0 8 8 15 18 15 23 0 42 19 42 42 0 10 7 18 15 18 9 0 15
-9 15 -25z"/>
<path d="M137 283 c-22 -23 -28 -24 -42 -13 -10 8 -19 10 -25 4 -13 -13 16
-54 38 -54 19 0 72 48 72 66 0 24 -17 23 -43 -3z"/>
<path d="M135 150 c-12 -14 -25 -17 -46 -13 -36 7 -37 -6 -4 -37 l25 -24 35
34 c36 35 45 60 22 60 -8 0 -22 -9 -32 -20z"/>
</g>
</svg>
