<?xml version="1.0" standalone="no"?>
<!DOCTYPE svg PUBLIC "-//W3C//DTD SVG 20010904//EN"
 "http://www.w3.org/TR/2001/REC-SVG-20010904/DTD/svg10.dtd">
<svg version="1.0" xmlns="http://www.w3.org/2000/svg"
 width="64.000000pt" height="64.000000pt" viewBox="0 0 64.000000 64.000000"
 preserveAspectRatio="xMidYMid meet">

<g transform="translate(0.000000,64.000000) scale(0.100000,-0.100000)"
fill="#94D140" stroke="none">
<path d="M363 602 c-4 -17 -9 -18 -32 -9 -52 19 -113 -14 -127 -68 -19 -76 55
-145 127 -118 l28 11 3 -57 c3 -53 5 -56 31 -59 21 -3 27 -9 27 -28 0 -13 4
-24 9 -24 5 0 11 -9 14 -20 4 -15 14 -20 36 -20 21 0 31 -5 31 -15 0 -13 -23
-15 -145 -15 -132 0 -147 2 -165 20 -11 11 -20 25 -20 30 0 6 -16 10 -36 10
-27 0 -37 -5 -41 -19 -4 -14 -15 -21 -42 -23 l-36 -3 0 -70 c0 -108 -1 -108
102 -100 49 3 179 8 291 11 l202 5 0 69 0 70 -44 0 c-39 0 -45 3 -48 23 -2 17
-11 23 -35 25 -18 2 -33 7 -33 13 0 5 5 9 10 9 6 0 10 11 10 25 0 14 5 25 10
25 6 0 10 -7 10 -15 0 -10 10 -15 30 -15 19 0 30 5 30 14 0 9 12 16 28 18 l27
3 0 155 0 155 -123 3 c-115 2 -124 1 -129 -16z m237 -142 l0 -140 -30 0 c-20
0 -30 -5 -30 -15 0 -8 -4 -15 -10 -15 -5 0 -10 7 -10 15 0 10 -10 15 -30 15
-25 0 -30 -4 -30 -25 0 -14 -4 -25 -10 -25 -5 0 -10 11 -10 25 0 21 -5 25 -30
25 l-30 0 0 63 c0 34 5 69 10 77 7 11 10 -5 10 -52 l0 -68 90 0 90 0 0 120 0
120 -90 0 -90 0 0 -27 c0 -22 -2 -25 -10 -13 -5 8 -10 25 -10 38 0 21 3 22
110 22 l110 0 0 -140z m-245 95 c50 -49 15 -135 -55 -135 -41 0 -80 39 -80 80
0 41 39 80 80 80 19 0 40 -9 55 -25z m203 -7 c-3 -9 -26 -13 -68 -13 -42 0
-65 4 -67 13 -4 9 14 12 67 12 53 0 71 -3 68 -12z m2 -110 l0 -78 -70 0 -70 0
0 78 0 77 70 0 70 0 0 -77z m-385 -236 c9 -31 51 -42 155 -42 55 0 100 -3 100
-8 0 -11 -75 -32 -78 -21 -2 5 -17 9 -33 9 -26 0 -29 -4 -29 -30 0 -26 3 -30
29 -30 16 0 31 4 33 9 3 11 78 -9 78 -21 0 -4 -48 -9 -107 -12 -60 -3 -145 -8
-190 -12 -56 -4 -83 -2 -83 5 0 6 18 11 40 11 22 0 40 5 40 10 0 6 -20 10 -45
10 -25 0 -45 5 -45 10 0 6 23 10 50 10 28 0 50 5 50 10 0 6 -22 10 -50 10 -27
0 -50 5 -50 10 0 6 25 10 55 10 30 0 55 5 55 10 0 6 -25 10 -55 10 -30 0 -55
5 -55 10 0 6 23 10 50 10 28 0 50 5 50 10 0 6 -4 10 -10 10 -5 0 -10 5 -10 10
0 18 48 11 55 -8z m295 -92 c0 -27 -4 -50 -10 -50 -5 0 -10 23 -10 50 0 28 5
50 10 50 6 0 10 -22 10 -50z m40 30 c0 -11 -4 -20 -10 -20 -5 0 -10 9 -10 20
0 11 5 20 10 20 6 0 10 -9 10 -20z m90 -30 l0 -50 -55 0 c-47 0 -55 3 -55 19
0 10 9 21 20 24 14 3 20 14 20 31 0 23 4 26 35 26 l35 0 0 -50z m-270 0 c0 -5
-4 -10 -10 -10 -5 0 -10 5 -10 10 0 6 5 10 10 10 6 0 10 -4 10 -10z m100 0 c0
-5 -9 -10 -20 -10 -11 0 -20 5 -20 10 0 6 9 10 20 10 11 0 20 -4 20 -10z"/>
<path d="M270 545 c0 -8 -7 -15 -15 -15 -10 0 -15 -10 -15 -30 0 -20 5 -30 15
-30 8 0 15 -7 15 -15 0 -10 10 -15 30 -15 20 0 30 5 30 15 0 8 7 15 15 15 10
0 15 10 15 30 0 20 -5 30 -15 30 -8 0 -15 7 -15 15 0 10 -10 15 -30 15 -20 0
-30 -5 -30 -15z m40 -20 c0 -8 7 -15 15 -15 8 0 15 -4 15 -10 0 -5 -7 -10 -15
-10 -8 0 -15 -7 -15 -15 0 -8 -4 -15 -10 -15 -5 0 -10 7 -10 15 0 8 -7 15 -15
15 -8 0 -15 5 -15 10 0 6 7 10 15 10 8 0 15 7 15 15 0 8 5 15 10 15 6 0 10 -7
10 -15z"/>
<path d="M480 390 c0 -5 5 -10 10 -10 6 0 10 5 10 10 0 6 -4 10 -10 10 -5 0
-10 -4 -10 -10z"/>
<path d="M520 390 c0 -5 5 -10 10 -10 6 0 10 5 10 10 0 6 -4 10 -10 10 -5 0
-10 -4 -10 -10z"/>
<path d="M51 496 c-38 -39 -36 -66 4 -66 27 0 32 -9 13 -28 -9 -9 -7 -16 7
-32 10 -11 22 -17 27 -14 6 4 26 -10 47 -30 35 -34 104 -76 125 -76 5 0 22
-12 38 -27 36 -34 50 -22 16 15 -14 15 -35 47 -46 72 -12 25 -38 61 -57 80
-19 19 -35 41 -35 49 0 8 -7 23 -17 33 -15 17 -17 17 -35 2 -17 -16 -18 -16
-18 13 0 25 -14 43 -34 43 -1 0 -17 -15 -35 -34z m29 -21 c-13 -14 -28 -25
-34 -25 -5 0 3 13 19 30 16 16 31 28 33 25 3 -3 -5 -16 -18 -30z m30 -25 c0
-5 -4 -10 -10 -10 -5 0 -10 5 -10 10 0 6 5 10 10 10 6 0 10 -4 10 -10z m26
-38 c-19 -20 -39 -33 -42 -29 -10 10 57 78 69 70 5 -3 -7 -22 -27 -41z m42
-14 c-2 -7 4 -12 12 -13 8 0 15 -7 15 -15 0 -8 5 -15 12 -15 22 0 23 -12 3
-30 -20 -18 -21 -18 -55 15 -33 32 -34 35 -18 52 18 21 34 24 31 6z m72 -93
c-7 -8 -17 -15 -22 -15 -6 0 -5 7 2 15 7 8 17 15 22 15 6 0 5 -7 -2 -15z m30
-25 c0 -5 -4 -10 -10 -10 -5 0 -10 5 -10 10 0 6 5 10 10 10 6 0 10 -4 10 -10z"/>
</g>
</svg>
